<svg width="360" height="520" viewBox="0 0 360 520" fill="none" xmlns="http://www.w3.org/2000/svg">
  <defs>
    <linearGradient id="body" x1="70" y1="40" x2="290" y2="470" gradientUnits="userSpaceOnUse">
      <stop stop-color="#1F3E6E"/>
      <stop offset="1" stop-color="#0D1A31"/>
    </linearGradient>
    <linearGradient id="visor" x1="120" y1="110" x2="245" y2="210" gradientUnits="userSpaceOnUse">
      <stop stop-color="#66FFD9"/>
      <stop offset="1" stop-color="#00C790"/>
    </linearGradient>
  </defs>
  <rect x="72" y="42" width="216" height="436" rx="54" fill="url(#body)"/>
  <rect x="112" y="94" width="136" height="104" rx="32" fill="url(#visor)" fill-opacity="0.95"/>
  <rect x="122" y="222" width="116" height="14" rx="7" fill="#A5B9DB" fill-opacity="0.65"/>
  <rect x="122" y="250" width="88" height="12" rx="6" fill="#A5B9DB" fill-opacity="0.5"/>
  <circle cx="126" cy="320" r="28" fill="#112440"/>
  <circle cx="234" cy="320" r="28" fill="#112440"/>
  <rect x="128" y="354" width="104" height="66" rx="20" fill="#10213D"/>
  <path d="M90 470H270V488C270 501.255 259.255 512 246 512H114C100.745 512 90 501.255 90 488V470Z" fill="#0A1323"/>
  <rect x="88" y="40" width="220" height="440" rx="56" stroke="#6EDCC4" stroke-opacity="0.35" stroke-width="4"/>
</svg>
